<svg xmlns="http://www.w3.org/2000/svg" xmlns:xlink="http://www.w3.org/1999/xlink" height="0" width="0">
  <defs>
    <pattern id="blocks" data-name="blocks" x="0" y="0" width="400" height="400" patternTransform="scale(4)" patternUnits="userSpaceOnUse" viewBox="0 0 400 400">
      <g>
        <polygon points="347.96 441.57 303.7 444.89 300.39 400.63 344.65 397.31 347.96 441.57" fill="#fff"/>
        <polygon points="110.46 423.76 68.04 436.78 55.02 394.35 97.45 381.33 110.46 423.76" fill="#fff"/>
        <polygon points="393.3 446.66 350.21 436.02 360.86 392.93 403.94 403.58 393.3 446.66" fill="#fff"/>
        <polygon points="167.37 438.8 125.82 454.37 110.24 412.82 151.8 397.24 167.37 438.8" fill="#fff"/>
        <polygon points="229.49 446.21 187.07 433.16 200.12 390.74 242.54 403.79 229.49 446.21" fill="#fff"/>
        <polygon points="296.98 422.79 255.42 438.36 239.84 396.81 281.4 381.23 296.98 422.79" fill="#fff"/>
      </g>
      <polygon points="-6.7 446.66 -49.79 436.02 -39.14 392.93 3.94 403.58 -6.7 446.66" fill="#fff"/>
      <g>
        <polygon points="438.59 406.7 399.17 386.31 419.56 346.89 458.98 367.29 438.59 406.7" fill="#fff"/>
        <polygon points="442.05 95.92 403.62 118.11 381.43 79.67 419.87 57.49 442.05 95.92" fill="#fff"/>
        <polygon points="460.18 30.94 430.53 63.96 397.51 34.31 427.16 1.29 460.18 30.94" fill="#fff"/>
        <polygon points="442.36 300.09 445.52 344.36 401.25 347.52 398.09 303.25 442.36 300.09" fill="#fff"/>
      </g>
      <g>
        <polygon points="106.02 377.45 62.42 385.74 54.13 342.14 97.73 333.85 106.02 377.45" fill="#fff"/>
        <polygon points="352.5 322.3 317.41 349.47 290.24 314.38 325.33 287.21 352.5 322.3" fill="#fff"/>
        <polygon points="363.85 157.41 321.47 170.57 308.3 128.19 350.69 115.02 363.85 157.41" fill="#fff"/>
        <polygon points="173.95 405.11 151.76 366.68 190.2 344.49 212.39 382.92 173.95 405.11" fill="#fff"/>
        <polygon points="276.28 366.23 238.65 342.71 262.17 305.07 299.8 328.59 276.28 366.23" fill="#fff"/>
        <polygon points="84.1 81.68 72.8 38.76 115.72 27.47 127.02 70.39 84.1 81.68" fill="#fff"/>
        <polygon points="313.48 296.81 271.84 312.14 256.5 270.5 298.14 255.16 313.48 296.81" fill="#fff"/>
        <polygon points="121.51 111.92 102.96 152.23 62.64 133.68 81.19 93.36 121.51 111.92" fill="#fff"/>
        <polygon points="166.17 105.24 124.34 120.04 109.53 78.2 151.37 63.4 166.17 105.24" fill="#fff"/>
        <polygon points="245.5 93.56 201.73 86.22 209.07 42.45 252.84 49.79 245.5 93.56" fill="#fff"/>
        <polygon points="366.61 242.43 323.08 233.83 331.68 190.29 375.21 198.89 366.61 242.43" fill="#fff"/>
        <polygon points="259.39 374.92 220.95 397.11 198.76 358.68 237.2 336.49 259.39 374.92" fill="#fff"/>
        <polygon points="38.59 406.7 -0.83 386.31 19.56 346.89 58.98 367.29 38.59 406.7" fill="#fff"/>
        <polygon points="347.96 41.57 303.7 44.89 300.39 0.63 344.65 -2.69 347.96 41.57" fill="#fff"/>
        <polygon points="400.59 328.12 357.34 338.1 347.36 294.86 390.6 284.88 400.59 328.12" fill="#fff"/>
        <polygon points="110.46 23.76 68.04 36.78 55.02 -5.65 97.45 -18.67 110.46 23.76" fill="#fff"/>
        <polygon points="393.3 46.66 350.21 36.02 360.86 -7.07 403.94 3.58 393.3 46.66" fill="#fff"/>
        <polygon points="42.05 95.92 3.62 118.11 -18.57 79.67 19.86 57.49 42.05 95.92" fill="#fff"/>
        <polygon points="160.07 393.98 117.89 407.79 104.08 365.61 146.26 351.81 160.07 393.98" fill="#fff"/>
        <polygon points="60.18 30.94 30.53 63.96 -2.49 34.31 27.16 1.29 60.18 30.94" fill="#fff"/>
        <polygon points="114.12 195.84 70.02 200.84 65.03 156.74 109.13 151.74 114.12 195.84" fill="#fff"/>
        <polygon points="319.9 166.41 279.26 184.24 261.43 143.59 302.07 125.77 319.9 166.41" fill="#fff"/>
        <polygon points="375.97 282.33 335.88 301.36 316.85 261.27 356.94 242.24 375.97 282.33" fill="#fff"/>
        <polygon points="422.72 189.41 385.59 213.72 361.28 176.59 398.41 152.28 422.72 189.41" fill="#fff"/>
        <polygon points="410.93 146.17 369.83 162.93 353.07 121.83 394.17 105.07 410.93 146.17" fill="#fff"/>
        <polygon points="43.47 105.32 29.54 63.18 71.68 49.26 85.61 91.4 43.47 105.32" fill="#fff"/>
        <polygon points="62.77 291.77 19.47 301.48 9.76 258.18 53.06 248.47 62.77 291.77" fill="#fff"/>
        <polygon points="42.36 300.09 45.52 344.36 1.25 347.52 -1.91 303.25 42.36 300.09" fill="#fff"/>
        <polygon points="411.35 363.69 381.31 396.35 348.65 366.31 378.69 333.65 411.35 363.69" fill="#fff"/>
        <polygon points="403.37 269.34 362.2 252.76 378.78 211.59 419.95 228.17 403.37 269.34" fill="#fff"/>
        <polygon points="283.34 92.32 250.88 62.05 281.14 29.59 313.6 59.86 283.34 92.32" fill="#fff"/>
        <polygon points="25.18 201.44 16.84 157.85 60.44 149.51 68.77 193.1 25.18 201.44" fill="#fff"/>
        <polygon points="167.37 38.8 125.82 54.37 110.24 12.82 151.8 -2.76 167.37 38.8" fill="#fff"/>
        <polygon points="264.66 140.75 233.28 109.37 264.66 77.99 296.04 109.37 264.66 140.75" fill="#fff"/>
        <polygon points="307.87 127.69 285.68 89.25 324.11 67.06 346.3 105.5 307.87 127.69" fill="#fff"/>
        <polygon points="214.74 131.2 170.68 136.46 165.41 92.4 209.48 87.13 214.74 131.2" fill="#fff"/>
        <polygon points="328.56 394.57 284.3 391.28 287.59 347.02 331.85 350.31 328.56 394.57" fill="#fff"/>
        <polygon points="65.97 148.49 22.38 156.84 14.03 113.25 57.62 104.9 65.97 148.49" fill="#fff"/>
        <polygon points="203.18 72.32 162.22 89.4 145.15 48.43 186.11 31.36 203.18 72.32" fill="#fff"/>
        <polygon points="381.03 43.91 381.03 88.29 336.65 88.29 336.65 43.91 381.03 43.91" fill="#fff"/>
        <polygon points="229.49 46.21 187.07 33.16 200.12 -9.26 242.54 3.79 229.49 46.21" fill="#fff"/>
        <polygon points="296.98 22.79 255.42 38.36 239.84 -3.19 281.4 -18.77 296.98 22.79" fill="#fff"/>
        <polygon points="70.98 236.79 29.42 252.36 13.84 210.81 55.4 195.23 70.98 236.79" fill="#fff"/>
        <polygon points="171.86 148.91 134.97 173.58 110.3 136.69 147.18 112.02 171.86 148.91" fill="#fff"/>
        <polygon points="263.75 152.44 226.44 176.47 202.41 139.16 239.72 115.13 263.75 152.44" fill="#fff"/>
        <polygon points="324.74 223.2 280.68 228.46 275.41 184.4 319.48 179.13 324.74 223.2" fill="#fff"/>
        <polygon points="100.22 323.44 59.43 340.94 41.94 300.15 82.72 282.66 100.22 323.44" fill="#fff"/>
        <polygon points="277.82 207.47 235.4 220.54 222.34 178.13 264.75 165.06 277.82 207.47" fill="#fff"/>
        <polygon points="221.96 170.36 185.52 195.68 160.19 159.24 196.63 133.91 221.96 170.36" fill="#fff"/>
        <polygon points="282.65 261.42 238.44 265.36 234.5 221.16 278.71 217.22 282.65 261.42" fill="#fff"/>
        <polygon points="94.31 286.79 55.08 266.03 75.84 226.81 115.07 247.56 94.31 286.79" fill="#fff"/>
        <polygon points="150.15 224.16 114.72 250.87 88 215.44 123.44 188.72 150.15 224.16" fill="#fff"/>
        <polygon points="191.96 207.07 155.52 232.4 130.19 195.95 166.63 170.63 191.96 207.07" fill="#fff"/>
        <rect x="100.89" y="307.61" width="44.38" height="44.38" fill="#fff"/>
        <polygon points="198.14 342.27 154.6 350.87 146.01 307.33 189.55 298.73 198.14 342.27" fill="#fff"/>
        <polygon points="210.07 282.99 169.87 301.79 151.07 261.59 191.28 242.79 210.07 282.99" fill="#fff"/>
        <polygon points="239.98 336.06 195.82 331.71 200.17 287.54 244.33 291.89 239.98 336.06" fill="#fff"/>
        <polygon points="158.14 299.27 114.61 307.87 106.01 264.33 149.55 255.73 158.14 299.27" fill="#fff"/>
        <polygon points="221.51 256.38 179.21 242.94 192.64 200.65 234.94 214.08 221.51 256.38" fill="#fff"/>
      </g>
      <g>
        <polygon points="0.59 328.12 -42.66 338.1 -52.64 294.86 -9.4 284.88 0.59 328.12" fill="#fff"/>
        <polygon points="-6.7 46.66 -49.79 36.02 -39.14 -7.07 3.94 3.58 -6.7 46.66" fill="#fff"/>
        <polygon points="22.72 189.41 -14.41 213.72 -38.72 176.59 -1.59 152.28 22.72 189.41" fill="#fff"/>
        <polygon points="10.93 146.17 -30.17 162.93 -46.93 121.83 -5.83 105.07 10.93 146.17" fill="#fff"/>
        <polygon points="11.35 363.69 -18.69 396.35 -51.35 366.31 -21.31 333.65 11.35 363.69" fill="#fff"/>
        <polygon points="3.37 269.34 -37.8 252.76 -21.22 211.59 19.95 228.17 3.37 269.34" fill="#fff"/>
      </g>
      <polygon points="438.59 6.7 399.17 -13.69 419.56 -53.11 458.98 -32.72 438.59 6.7" fill="#fff"/>
      <g>
        <polygon points="173.95 5.11 151.76 -33.33 190.2 -55.51 212.39 -17.08 173.95 5.11" fill="#fff"/>
        <polygon points="38.59 6.7 -0.83 -13.69 19.56 -53.11 58.98 -32.72 38.59 6.7" fill="#fff"/>
        <polygon points="160.07 -6.02 117.89 7.79 104.08 -34.39 146.26 -48.19 160.07 -6.02" fill="#fff"/>
      </g>
    </pattern>
    <pattern id="shards" x="0" y="0" width="400" height="400" patternUnits="userSpaceOnUse" viewBox="0 0 400 400">
      <rect width="400" height="400" fill="none"/>
      <polygon points="82.79 134.4 88.54 127.9 86.95 135.4 89.62 135.4 86.95 141.49 85.62 138.69 81.29 140.97 78.29 137.94 80.29 130.59 82.79 134.4" fill="none" stroke="#ccc" stroke-miterlimit="10"/>
      <polygon points="297.04 367.84 295.29 374.34 298.79 372.09 301.04 377.09 306.29 372.59 302.04 371.34 304.79 363.84 300.54 365.59 297.54 357.34 297.04 367.84" fill="none" stroke="#ccc" stroke-miterlimit="10"/>
      <polygon points="357.86 150.61 361.36 143.86 367.11 144.86 364.11 148.11 372.36 150.36 366.61 152.86 365.11 158.61 362.86 155.61 357.86 158.86 357.86 150.61" fill="none" stroke="#ccc" stroke-miterlimit="10"/>
      <polygon points="150.75 41.55 150.92 35.96 153.87 38.18 157.24 34.15 158.18 39.77 171.3 35.37 160.42 43.42 154.92 44.03 155.35 47.96 149.91 46.89 150.75 41.55" fill="none" stroke="#ccc" stroke-miterlimit="10"/>
      <polygon points="177.5 173.05 175.68 181.36 178.4 178.39 180.39 180.66 184.5 176.66 188.37 181.17 188.37 176.17 185.37 171.17 186.62 167.17 182.12 169.17 178.12 165.17 177.5 173.05" fill="none" stroke="#ccc" stroke-miterlimit="10"/>
      <polygon points="207.41 329.34 211.6 327.21 211.32 329.9 218.3 330.12 213.3 332.73 216.54 336.59 210.29 336.59 206.79 340.34 206.79 336.09 199.29 334.09 204.54 332.34 207.41 329.34" fill="none" stroke="#ccc" stroke-miterlimit="10"/>
      <polygon points="267.37 104.18 268.24 102.06 269.12 99.93 271.62 103.18 273.87 102.68 271.87 107.43 267.37 104.18" fill="none" stroke="#ccc" stroke-miterlimit="10"/>
      <polygon points="66.04 254.59 68.41 251.84 70.6 252.34 69.04 256.59 74.29 256.59 71.29 259.59 66.29 259.59 66.04 254.59" fill="none" stroke="#ccc" stroke-miterlimit="10"/>
      <polygon points="377.29 20.59 380.35 18.29 382.62 16.59 388.39 21.47 383.95 22.36 382.62 30.36 382.62 39.69 376.84 33.02 378.18 26.8 368.4 25.47 377.29 20.59" fill="none" stroke="#ccc" stroke-miterlimit="10"/>
      <polygon points="67.52 334.54 72.54 336.94 68.19 338.95 71.39 349.01 64.85 343.13 62.29 336.59 55.31 339.17 59.52 326.05 67.52 334.54" fill="none" stroke="#ccc" stroke-miterlimit="10"/>
      <polygon points="354.18 261.25 357.73 245.7 359.51 255.92 363.06 252.37 361.28 268.36 358.17 260.81 354.18 261.25" fill="none" stroke="#ccc" stroke-miterlimit="10"/>
      <polygon points="255.29 265.59 258.79 262.09 261.29 259.59 265.79 266.09 260.29 266.09 260.29 274.09 255.29 265.59" fill="none" stroke="#ccc" stroke-miterlimit="10"/>
    </pattern>
  </defs>
</svg>